<?xml version="1.0" encoding="utf-8"?>
<!-- Generator: Adobe Illustrator 16.0.4, SVG Export Plug-In . SVG Version: 6.00 Build 0)  -->
<!DOCTYPE svg PUBLIC "-//W3C//DTD SVG 1.1//EN" "http://www.w3.org/Graphics/SVG/1.1/DTD/svg11.dtd">
<svg version="1.1" id="Слой_1" xmlns="http://www.w3.org/2000/svg" xmlns:xlink="http://www.w3.org/1999/xlink" x="0px" y="0px"
	 width="70.892px" height="70.891px" viewBox="0 0 70.892 70.891" enable-background="new 0 0 70.892 70.891" xml:space="preserve">
<rect x="225.373" y="-95.114" fill="#FFFFFF" width="194.827" height="76.952"/>
<g>
	<path fill="#9D9D9C" d="M252.109-85.299c0,0.734-0.672,1.333-1.493,1.333h-6.329c-0.821,0-1.494,0.673-1.494,1.495v9.325
		c0,0.823-0.6,1.496-1.334,1.496s-1.334-0.673-1.334-1.496v-11.992c0-0.822,0.672-1.494,1.494-1.494h8.997
		C251.438-86.632,252.109-86.033,252.109-85.299z"/>
	<g>
		<path fill="#706F6F" d="M244.355-51.972c0.404,0.713,0.086,1.295-0.71,1.295s-1.831-0.551-2.299-1.223l-4.558-6.538
			c-0.469-0.671-0.469-1.771-0.001-2.442l4.56-6.554c0.469-0.672,1.502-1.222,2.298-1.222s1.116,0.583,0.71,1.293l-3.646,6.41
			c-0.403,0.712-0.403,1.876,0.002,2.587L244.355-51.972z"/>
		<path fill="#706F6F" d="M251.934-51.972c0.406,0.713,0.086,1.295-0.711,1.295c-0.795,0-1.83-0.551-2.297-1.223l-4.559-6.538
			c-0.469-0.671-0.469-1.771-0.001-2.442l4.56-6.554c0.469-0.672,1.502-1.222,2.297-1.222c0.797,0,1.117,0.583,0.712,1.293
			l-3.647,6.41c-0.404,0.712-0.404,1.876,0.002,2.587L251.934-51.972z"/>
	</g>
	<g>
		<path fill="#3C3C3B" d="M245.958-45.935c0,0.821-0.021,2.167-0.047,2.988c0,0-0.009,0.256-0.12,0.946
			c-0.112,0.691-0.404,1.386-0.879,2.076c-0.475,0.691-1.205,1.26-2.193,1.709l-0.073-0.112c-0.448-0.689-0.312-1.697,0.304-2.239
			c0,0,1.041-0.916,1.055-2.985h-0.364c-0.821,0-1.495-0.671-1.495-1.492v-1.143c0-0.821,0.674-1.494,1.495-1.494h0.825
			c0.821,0,1.493,0.673,1.493,1.494V-45.935z"/>
		<path fill="#3C3C3B" d="M252.109-45.935c0,0.821-0.021,2.167-0.047,2.988c0,0-0.009,0.256-0.119,0.946
			c-0.111,0.691-0.402,1.386-0.871,2.076c-0.467,0.691-1.201,1.26-2.203,1.709l-0.072-0.112c-0.449-0.689-0.312-1.695,0.307-2.238
			c0,0,1.044-0.917,1.07-2.986h-0.383c-0.822,0-1.494-0.671-1.494-1.492v-1.143c0-0.821,0.672-1.494,1.494-1.494h0.825
			c0.821,0,1.493,0.673,1.493,1.494V-45.935z"/>
	</g>
	<path fill="#9D9D9C" d="M270.088-34.033c0-0.733,0.673-1.332,1.496-1.332h6.327c0.821,0,1.493-0.675,1.493-1.496v-9.323
		c0-0.823,0.602-1.496,1.335-1.496s1.334,0.673,1.334,1.496v11.991c0,0.821-0.671,1.494-1.494,1.494h-8.995
		C270.761-32.699,270.088-33.3,270.088-34.033z"/>
	<g>
		<path fill="#706F6F" d="M277.844-67.361c-0.406-0.711-0.087-1.293,0.709-1.293c0.797,0,1.83,0.551,2.299,1.222l4.559,6.537
			c0.467,0.671,0.469,1.771,0,2.443l-4.559,6.553c-0.469,0.673-1.502,1.223-2.299,1.223c-0.796,0-1.115-0.582-0.711-1.295
			l3.646-6.408c0.405-0.712,0.404-1.877-0.002-2.587L277.844-67.361z"/>
		<path fill="#706F6F" d="M270.264-67.361c-0.404-0.711-0.085-1.293,0.711-1.293s1.831,0.551,2.299,1.222l4.559,6.537
			c0.469,0.671,0.469,1.771,0,2.443l-4.561,6.553c-0.467,0.673-1.501,1.223-2.297,1.223s-1.115-0.582-0.711-1.295l3.647-6.408
			c0.405-0.712,0.404-1.876-0.001-2.587L270.264-67.361z"/>
	</g>
	<g>
		<path fill="#3C3C3B" d="M276.24-73.397c0-0.822,0.021-2.167,0.047-2.988c0,0,0.009-0.257,0.12-0.947
			c0.112-0.692,0.405-1.384,0.879-2.075c0.475-0.691,1.206-1.261,2.194-1.708l0.072,0.112c0.449,0.688,0.312,1.696-0.305,2.239
			c0,0-1.039,0.916-1.052,2.985h0.362c0.822,0,1.494,0.672,1.494,1.493v1.142c0,0.822-0.672,1.495-1.494,1.495h-0.824
			c-0.822,0-1.494-0.673-1.494-1.495V-73.397z"/>
		<path fill="#3C3C3B" d="M270.088-73.397c0-0.822,0.021-2.167,0.049-2.988c0,0,0.008-0.257,0.119-0.947
			c0.112-0.692,0.402-1.384,0.869-2.075c0.469-0.691,1.204-1.261,2.203-1.708l0.074,0.112c0.449,0.688,0.311,1.695-0.307,2.237
			c0,0-1.045,0.917-1.07,2.986h0.383c0.821,0,1.494,0.672,1.494,1.493v1.142c0,0.822-0.673,1.495-1.494,1.495h-0.824
			c-0.823,0-1.496-0.673-1.496-1.495V-73.397z"/>
	</g>
	<path fill="#3C3C3B" d="M260.99-65.972c0.3,0.165,0.605,0.314,0.922,0.449c0.321,0.137,0.652,0.206,0.989,0.206
		c0.802,0,1.46-0.287,1.975-0.859c0.389-0.433,0.653-1.014,0.806-1.74c0.084-0.399-0.09-0.76-0.61-0.76
		c-0.632,0-0.79,0.259-0.831,0.374c-0.24,0.653-0.631,0.981-1.174,0.981c-0.268,0-0.546-0.069-0.837-0.206
		c-0.291-0.138-0.59-0.291-0.896-0.46c-0.298-0.163-0.604-0.313-0.921-0.448c-0.322-0.137-0.652-0.206-0.99-0.206
		c-0.801,0-1.459,0.286-1.975,0.86c-0.388,0.432-0.653,1.012-0.806,1.739c-0.083,0.4,0.091,0.759,0.61,0.759
		c0.631,0,0.789-0.259,0.832-0.373c0.24-0.655,0.631-0.982,1.173-0.982c0.267,0,0.547,0.07,0.838,0.206
		C260.385-66.293,260.684-66.14,260.99-65.972L260.99-65.972z"/>
	<path fill="#3C3C3B" d="M258.043-62.005L258.043-62.005c0.393-0.62,0.95-1.101,1.674-1.437c0.723-0.339,1.525-0.508,2.404-0.508
		c3.129,0,4.691,1.591,4.691,4.775v7.408c0,0.599-0.488,1.09-1.084,1.09h-0.6c-0.597,0-1.085-0.491-1.085-1.09l-0.013-6.925
		c0-1.006-0.202-1.757-0.607-2.252c-0.404-0.495-1.047-0.742-1.928-0.742c-1.17,0-2.026,0.345-2.568,1.036
		c-0.543,0.692-0.813,1.851-0.813,3.477l-0.002,5.406c0,0.599-0.487,1.09-1.085,1.09h-0.599c-0.597,0-1.085-0.491-1.085-1.09
		v-10.857c0-0.599,0.488-1.09,1.086-1.09h0.469C257.495-63.714,257.834-63.189,258.043-62.005z"/>
</g>
<rect y="-95.114" fill="#FFFFFF" width="194.828" height="76.952"/>
<rect y="-183.114" fill="#CB5E10" width="194.605" height="76.952"/>
<path fill="#FBBA00" d="M82.109-69.77l-1.68-9.793l-0.59-4.132h-0.061c-0.151,1.342-0.272,2.313-0.363,2.914
	c-0.091,0.6-0.732,4.271-1.922,11.012h-5.177l-3.36-16.862h4.042l1.544,9.294c0.182,1.029,0.439,2.538,0.59,4.526l0,0
	c0.02-0.535,0.091-1.35,0.212-2.445c0.121-1.095,0.207-1.798,0.257-2.111l1.665-9.264h5.177l1.65,9.294
	c0.191,0.989,0.418,2.498,0.56,4.526l0,0c0.141-1.806,0.318-3.315,0.53-4.526l1.604-9.294h3.936L87.347-69.77H82.109z"/>
<path fill="#FBBA00" d="M100.273-69.467c-0.727,0-1.37-0.164-1.93-0.492c-0.56-0.328-1.082-0.905-1.566-1.733h-0.099
	c0.161,1.373,0.129,2.2,0.129,2.482v6.887H92.75v-24.31h3.118l0.696,2.195h0.182c0.837-1.675,2.053-2.513,3.648-2.513
	c1.534,0,2.734,0.759,3.603,2.278c0.868,1.519,1.302,3.666,1.302,6.441c0,2.735-0.449,4.879-1.347,6.433
	C103.053-70.244,101.827-69.467,100.273-69.467z M99.032-83.529c-0.787,0-1.355,0.366-1.703,1.097
	c-0.349,0.732-0.533,1.945-0.553,3.641v0.53c0,1.857,0.176,3.209,0.53,4.057c0.353,0.848,0.938,1.271,1.756,1.271
	c1.413,0,2.119-1.786,2.119-5.358c0-1.756-0.174-3.067-0.522-3.936C100.311-83.095,99.769-83.529,99.032-83.529z"/>
<path fill="#EF7D00" d="M107.509-76.309v-3.542h7.614v3.542H107.509z"/>
<path fill="#E4032E" d="M123.72-69.77h-4.102v-18.512h-4.238V-91.9h12.579v3.618h-4.238V-69.77z"/>
<path fill="#E4032E" d="M127.958-86.632h4.178l2.331,9.521c0.232,0.848,0.509,2.034,0.651,3.557l0,0
	c0.01-0.242,0.055-0.674,0.136-1.294c0.081-0.621,0.146-1.107,0.197-1.461c0.05-0.353,0.747-3.794,2.089-10.323h4.238l-4.829,18.073
	c-0.585,2.22-1.362,3.814-2.331,4.783s-2.261,1.453-3.875,1.453c-0.797,0-1.509-0.086-2.134-0.257v-3.375
	c0.414,0.121,0.878,0.182,1.393,0.182c1.352,0,2.24-0.888,2.664-2.664l0.288-1.06L127.958-86.632z"/>
<path fill="#E4032E" d="M151.012-69.467c-0.727,0-1.37-0.164-1.93-0.492c-0.56-0.328-1.082-0.905-1.566-1.733h-0.1
	c0.161,1.373,0.13,2.2,0.13,2.482v6.887h-4.057v-24.31h3.118l0.696,2.195h0.182c0.837-1.675,2.053-2.513,3.648-2.513
	c1.534,0,2.734,0.759,3.603,2.278c0.868,1.519,1.302,3.666,1.302,6.441c0,2.735-0.449,4.879-1.347,6.433
	C153.792-70.244,152.565-69.467,151.012-69.467z M149.771-83.529c-0.787,0-1.355,0.366-1.703,1.097
	c-0.349,0.732-0.533,1.945-0.553,3.641v0.53c0,1.857,0.176,3.209,0.53,4.057c0.353,0.848,0.938,1.271,1.756,1.271
	c1.413,0,2.119-1.786,2.119-5.358c0-1.756-0.174-3.067-0.522-3.936C151.049-83.095,150.507-83.529,149.771-83.529z"/>
<path fill="#E4032E" d="M171.355-78.231c0,2.765-0.585,4.917-1.756,6.456c-1.171,1.539-2.775,2.309-4.813,2.309
	c-1.292,0-2.432-0.353-3.421-1.06c-0.989-0.706-1.751-1.723-2.286-3.05c-0.535-1.327-0.802-2.878-0.802-4.655
	c0-2.734,0.58-4.872,1.741-6.411c1.16-1.539,2.77-2.308,4.829-2.308c1.988,0,3.57,0.785,4.746,2.354
	C170.768-83.027,171.355-80.905,171.355-78.231z M162.395-78.231c0,1.756,0.191,3.083,0.575,3.981
	c0.383,0.898,0.999,1.347,1.847,1.347c1.614,0,2.422-1.776,2.422-5.328c0-1.766-0.194-3.085-0.583-3.958
	c-0.389-0.873-1.002-1.309-1.839-1.309c-0.848,0-1.463,0.437-1.847,1.309C162.586-81.317,162.395-79.997,162.395-78.231z"/>
<path fill="#EF7D00" d="M173.565-76.309v-3.542h7.614v3.542H173.565z"/>
<path fill="#E4032E" d="M82.503-49.402v2.361l-2.013,0.454c0.394,0.706,0.59,1.595,0.59,2.664c0,1.786-0.484,3.185-1.453,4.192
	c-0.969,1.01-2.321,1.514-4.057,1.514c-0.505,0-0.878-0.039-1.12-0.121c-0.192,0.172-0.374,0.363-0.545,0.576
	c-0.172,0.211-0.257,0.475-0.257,0.787c0,0.706,0.61,1.059,1.832,1.059h2.437c1.433,0,2.535,0.387,3.308,1.158
	c0.771,0.771,1.158,1.936,1.158,3.489c0,1.958-0.656,3.472-1.968,4.541c-1.312,1.069-3.199,1.604-5.661,1.604
	c-1.867,0-3.305-0.406-4.314-1.219c-1.009-0.812-1.514-1.971-1.514-3.474c0-0.938,0.288-1.763,0.863-2.476
	c0.575-0.711,1.372-1.228,2.392-1.551c-0.515-0.201-0.936-0.515-1.264-0.938c-0.328-0.424-0.492-0.918-0.492-1.483
	c0-0.343,0.05-0.653,0.151-0.932c0.101-0.277,0.245-0.539,0.431-0.787c0.187-0.246,0.568-0.612,1.143-1.097
	c-0.696-0.424-1.247-1.075-1.65-1.952c-0.404-0.879-0.605-1.852-0.605-2.922c0-1.847,0.484-3.274,1.453-4.283
	c0.969-1.01,2.356-1.514,4.163-1.514c0.343,0,0.736,0.037,1.181,0.113c0.444,0.076,0.782,0.154,1.014,0.234H82.503z M72.588-30.118
	c0,0.666,0.209,1.179,0.628,1.536c0.419,0.358,1.017,0.537,1.794,0.537c1.221,0,2.137-0.232,2.747-0.695
	c0.611-0.465,0.916-1.101,0.916-1.908c0-0.635-0.164-1.084-0.492-1.347c-0.328-0.263-0.941-0.394-1.839-0.394H74.39
	c-0.545,0-0.981,0.205-1.309,0.613C72.752-31.367,72.588-30.814,72.588-30.118z M73.83-43.923c0,1.988,0.56,2.981,1.68,2.981
	c1.09,0,1.635-1.004,1.635-3.012c0-2.059-0.545-3.088-1.635-3.088C74.39-47.041,73.83-46.002,73.83-43.923z"/>
<path fill="#E4032E" d="M91.721-49.75c0.494,0,0.979,0.075,1.453,0.227l-0.469,3.905c-0.283-0.101-0.651-0.151-1.105-0.151
	c-0.979,0-1.731,0.387-2.255,1.158c-0.525,0.771-0.787,1.895-0.787,3.367v8.674h-4.026v-16.862h3.315l0.454,2.634h0.136
	c0.444-1.06,0.928-1.816,1.453-2.271C90.414-49.523,91.025-49.75,91.721-49.75z"/>
<path fill="#E4032E" d="M103.24-32.57l-0.802-2.301h-0.091c-0.596,0.989-1.211,1.67-1.847,2.043s-1.438,0.561-2.407,0.561
	c-1.241,0-2.217-0.464-2.929-1.393c-0.711-0.928-1.067-2.22-1.067-3.875c0-1.775,0.487-3.096,1.46-3.959
	c0.974-0.861,2.43-1.339,4.367-1.43l2.24-0.091v-1.211c0-1.574-0.681-2.361-2.043-2.361c-1.009,0-2.17,0.394-3.481,1.181
	l-1.393-2.785c1.675-1.06,3.497-1.59,5.464-1.59c1.786,0,3.146,0.513,4.079,1.537c0.934,1.023,1.4,2.475,1.4,4.352v11.322H103.24z
	 M99.744-35.416c0.736,0,1.324-0.33,1.764-0.992c0.438-0.66,0.658-1.541,0.658-2.641v-1.423l-1.241,0.061
	c-0.918,0.051-1.592,0.313-2.021,0.787c-0.429,0.475-0.644,1.181-0.644,2.119C98.26-36.112,98.754-35.416,99.744-35.416z"/>
<path fill="#E4032E" d="M133.226-32.57v-10.051c0-2.473-0.621-3.709-1.862-3.709c-0.929,0-1.58,0.487-1.953,1.461
	c-0.374,0.975-0.56,2.375-0.56,4.201v8.098h-4.026v-23.553h4.026v5.237c0,0.677,0.007,1.876-0.068,3.618h0.098
	c0.807-1.655,2.048-2.482,3.724-2.482c1.544,0,2.709,0.521,3.497,1.566s1.181,2.58,1.181,4.609v11.004H133.226z"/>
<path fill="#E4032E" d="M138.827-49.433h4.178l2.331,9.521c0.232,0.848,0.509,2.034,0.651,3.558l0,0
	c0.01-0.242,0.055-0.673,0.136-1.294c0.081-0.621,0.146-1.107,0.197-1.461c0.05-0.354,0.747-3.794,2.089-10.323h4.238l-4.829,18.073
	c-0.585,2.22-1.362,3.814-2.331,4.783s-2.261,1.453-3.875,1.453c-0.797,0-1.509-0.086-2.134-0.258v-3.375
	c0.414,0.121,0.878,0.182,1.393,0.182c1.352,0,2.24-0.889,2.664-2.664l0.288-1.06L138.827-49.433z"/>
<path fill="#E4032E" d="M116.969-32.268c-0.727,0-1.37-0.164-1.93-0.492c-0.56-0.328-1.082-0.905-1.566-1.732h-0.1
	c0.161,1.372,0.13,2.199,0.13,2.482v6.887h-4.057v-24.31h3.118l0.696,2.194h0.182c0.837-1.674,2.053-2.512,3.648-2.512
	c1.534,0,2.734,0.759,3.603,2.277c0.868,1.52,1.302,3.666,1.302,6.441c0,2.734-0.449,4.879-1.347,6.433
	C119.749-33.045,118.523-32.268,116.969-32.268z M115.728-46.33c-0.787,0-1.355,0.366-1.703,1.098
	c-0.349,0.732-0.533,1.945-0.553,3.641v0.529c0,1.857,0.176,3.209,0.53,4.057c0.353,0.848,0.938,1.271,1.756,1.271
	c1.413,0,2.119-1.785,2.119-5.357c0-1.756-0.174-3.068-0.522-3.936C117.007-45.896,116.464-46.33,115.728-46.33z"/>
<path fill="#FFF1C4" d="M82.108-157.77l-1.68-9.793l-0.59-4.132h-0.061c-0.151,1.342-0.272,2.313-0.363,2.914
	c-0.091,0.6-0.732,4.271-1.922,11.012h-5.177l-3.36-16.862h4.042l1.544,9.294c0.182,1.029,0.439,2.538,0.59,4.526l0,0
	c0.02-0.535,0.091-1.35,0.212-2.445c0.121-1.095,0.207-1.798,0.257-2.111l1.665-9.264h5.177l1.65,9.294
	c0.191,0.989,0.418,2.498,0.56,4.526l0,0c0.141-1.806,0.318-3.315,0.53-4.526l1.604-9.294h3.936l-3.375,16.862H82.108z"/>
<path fill="#FFF1C4" d="M100.272-157.467c-0.727,0-1.37-0.164-1.93-0.492c-0.56-0.328-1.082-0.905-1.566-1.733h-0.099
	c0.161,1.373,0.129,2.2,0.129,2.482v6.887H92.75v-24.31h3.118l0.696,2.195h0.182c0.837-1.675,2.053-2.513,3.648-2.513
	c1.534,0,2.734,0.759,3.603,2.278c0.868,1.519,1.302,3.666,1.302,6.441c0,2.735-0.449,4.879-1.347,6.433
	C103.052-158.244,101.826-157.467,100.272-157.467z M99.031-171.529c-0.787,0-1.355,0.366-1.703,1.097
	c-0.349,0.732-0.533,1.945-0.553,3.641v0.53c0,1.857,0.176,3.209,0.53,4.057c0.353,0.848,0.938,1.271,1.756,1.271
	c1.413,0,2.119-1.786,2.119-5.358c0-1.756-0.174-3.067-0.522-3.936C100.31-171.095,99.768-171.529,99.031-171.529z"/>
<path fill="#FAC39D" d="M107.508-164.309v-3.542h7.614v3.542H107.508z"/>
<path fill="#F2908E" d="M123.719-157.77h-4.102v-18.512h-4.238v-3.618h12.579v3.618h-4.238V-157.77z"/>
<path fill="#F2908E" d="M127.958-174.632h4.178l2.331,9.521c0.232,0.848,0.509,2.034,0.651,3.557l0,0
	c0.01-0.242,0.055-0.674,0.136-1.294c0.081-0.621,0.146-1.107,0.197-1.461c0.05-0.353,0.747-3.794,2.089-10.323h4.238l-4.829,18.073
	c-0.585,2.22-1.362,3.814-2.331,4.783s-2.261,1.453-3.875,1.453c-0.797,0-1.509-0.086-2.134-0.257v-3.375
	c0.414,0.121,0.878,0.182,1.393,0.182c1.352,0,2.24-0.888,2.664-2.664l0.288-1.06L127.958-174.632z"/>
<path fill="#F2908E" d="M151.011-157.467c-0.727,0-1.37-0.164-1.93-0.492c-0.56-0.328-1.082-0.905-1.566-1.733h-0.1
	c0.161,1.373,0.13,2.2,0.13,2.482v6.887h-4.057v-24.31h3.118l0.696,2.195h0.182c0.837-1.675,2.053-2.513,3.648-2.513
	c1.534,0,2.734,0.759,3.603,2.278c0.868,1.519,1.302,3.666,1.302,6.441c0,2.735-0.449,4.879-1.347,6.433
	C153.791-158.244,152.564-157.467,151.011-157.467z M149.77-171.529c-0.787,0-1.355,0.366-1.703,1.097
	c-0.349,0.732-0.533,1.945-0.553,3.641v0.53c0,1.857,0.176,3.209,0.53,4.057c0.353,0.848,0.938,1.271,1.756,1.271
	c1.413,0,2.119-1.786,2.119-5.358c0-1.756-0.174-3.067-0.522-3.936C151.048-171.095,150.506-171.529,149.77-171.529z"/>
<path fill="#F2908E" d="M171.354-166.231c0,2.765-0.585,4.917-1.756,6.456c-1.171,1.539-2.775,2.309-4.813,2.309
	c-1.292,0-2.432-0.353-3.421-1.06c-0.989-0.706-1.751-1.723-2.286-3.05c-0.535-1.327-0.802-2.878-0.802-4.655
	c0-2.734,0.58-4.872,1.741-6.411c1.16-1.539,2.77-2.308,4.829-2.308c1.988,0,3.57,0.785,4.746,2.354
	C170.767-171.027,171.354-168.905,171.354-166.231z M162.394-166.231c0,1.756,0.191,3.083,0.575,3.981
	c0.383,0.898,0.999,1.347,1.847,1.347c1.614,0,2.422-1.776,2.422-5.328c0-1.766-0.194-3.085-0.583-3.958
	c-0.389-0.873-1.002-1.309-1.839-1.309c-0.848,0-1.463,0.437-1.847,1.309C162.585-169.317,162.394-167.997,162.394-166.231z"/>
<path fill="#FAC39D" d="M173.564-164.309v-3.542h7.614v3.542H173.564z"/>
<path fill="#F2908E" d="M82.502-137.402v2.361l-2.013,0.454c0.394,0.707,0.59,1.595,0.59,2.664c0,1.786-0.484,3.184-1.453,4.193
	c-0.969,1.009-2.321,1.514-4.057,1.514c-0.505,0-0.878-0.04-1.12-0.121c-0.192,0.172-0.374,0.363-0.545,0.575
	c-0.172,0.212-0.257,0.475-0.257,0.787c0,0.707,0.61,1.06,1.832,1.06h2.437c1.433,0,2.535,0.386,3.308,1.158
	c0.771,0.771,1.158,1.935,1.158,3.489c0,1.958-0.656,3.471-1.968,4.541c-1.312,1.069-3.199,1.604-5.661,1.604
	c-1.867,0-3.305-0.406-4.314-1.218c-1.009-0.812-1.514-1.971-1.514-3.474c0-0.938,0.288-1.763,0.863-2.475
	c0.575-0.711,1.372-1.228,2.392-1.551c-0.515-0.202-0.936-0.515-1.264-0.938c-0.328-0.424-0.492-0.918-0.492-1.483
	c0-0.343,0.05-0.653,0.151-0.931c0.101-0.277,0.245-0.54,0.431-0.787c0.187-0.247,0.568-0.613,1.143-1.097
	c-0.696-0.424-1.247-1.075-1.65-1.953c-0.404-0.878-0.605-1.852-0.605-2.921c0-1.847,0.484-3.274,1.453-4.284
	c0.969-1.009,2.356-1.514,4.163-1.514c0.343,0,0.736,0.038,1.181,0.113c0.444,0.076,0.782,0.154,1.014,0.235H82.502z
	 M72.587-118.118c0,0.666,0.209,1.178,0.628,1.537c0.419,0.358,1.017,0.537,1.794,0.537c1.221,0,2.137-0.232,2.747-0.696
	c0.611-0.464,0.916-1.1,0.916-1.907c0-0.636-0.164-1.085-0.492-1.347c-0.328-0.263-0.941-0.394-1.839-0.394h-1.953
	c-0.545,0-0.981,0.205-1.309,0.613C72.751-119.367,72.587-118.814,72.587-118.118z M73.829-131.923c0,1.988,0.56,2.982,1.68,2.982
	c1.09,0,1.635-1.004,1.635-3.012c0-2.059-0.545-3.088-1.635-3.088C74.389-135.041,73.829-134.001,73.829-131.923z"/>
<path fill="#F2908E" d="M91.72-137.75c0.494,0,0.979,0.076,1.453,0.227l-0.469,3.905c-0.283-0.101-0.651-0.151-1.105-0.151
	c-0.979,0-1.731,0.386-2.255,1.158c-0.525,0.772-0.787,1.895-0.787,3.368v8.673H84.53v-16.862h3.315l0.454,2.634h0.136
	c0.444-1.06,0.928-1.816,1.453-2.271C90.413-137.523,91.024-137.75,91.72-137.75z"/>
<path fill="#F2908E" d="M103.239-120.57l-0.802-2.301h-0.091c-0.596,0.989-1.211,1.67-1.847,2.043s-1.438,0.56-2.407,0.56
	c-1.241,0-2.217-0.464-2.929-1.393c-0.711-0.928-1.067-2.22-1.067-3.875c0-1.776,0.487-3.095,1.46-3.958
	c0.974-0.862,2.43-1.339,4.367-1.43l2.24-0.091v-1.211c0-1.574-0.681-2.361-2.043-2.361c-1.009,0-2.17,0.394-3.481,1.181
	l-1.393-2.785c1.675-1.06,3.497-1.589,5.464-1.589c1.786,0,3.146,0.512,4.079,1.536c0.934,1.024,1.4,2.475,1.4,4.352v11.322H103.239
	z M99.743-123.416c0.736,0,1.324-0.331,1.764-0.992c0.438-0.661,0.658-1.541,0.658-2.641v-1.423l-1.241,0.061
	c-0.918,0.051-1.592,0.313-2.021,0.787c-0.429,0.475-0.644,1.181-0.644,2.119C98.259-124.112,98.753-123.416,99.743-123.416z"/>
<path fill="#F2908E" d="M133.225-120.57v-10.051c0-2.472-0.621-3.708-1.862-3.708c-0.929,0-1.58,0.487-1.953,1.461
	c-0.374,0.974-0.56,2.374-0.56,4.2v8.098h-4.026v-23.553h4.026v5.237c0,0.676,0.007,1.876-0.068,3.618h0.098
	c0.807-1.655,2.048-2.482,3.724-2.482c1.544,0,2.709,0.522,3.497,1.566c0.787,1.045,1.181,2.581,1.181,4.609v11.004H133.225z"/>
<path fill="#F2908E" d="M138.826-137.433h4.178l2.331,9.521c0.232,0.848,0.509,2.034,0.651,3.557l0,0
	c0.01-0.242,0.055-0.673,0.136-1.294c0.081-0.62,0.146-1.107,0.197-1.46c0.05-0.353,0.747-3.794,2.089-10.323h4.238l-4.829,18.073
	c-0.585,2.22-1.362,3.814-2.331,4.783s-2.261,1.453-3.875,1.453c-0.797,0-1.509-0.086-2.134-0.257v-3.375
	c0.414,0.121,0.878,0.182,1.393,0.182c1.352,0,2.24-0.888,2.664-2.664l0.288-1.06L138.826-137.433z"/>
<path fill="#F2908E" d="M116.968-120.268c-0.727,0-1.37-0.164-1.93-0.492c-0.56-0.328-1.082-0.905-1.566-1.733h-0.1
	c0.161,1.373,0.13,2.2,0.13,2.482v6.887h-4.057v-24.31h3.118l0.696,2.195h0.182c0.837-1.675,2.053-2.513,3.648-2.513
	c1.534,0,2.734,0.759,3.603,2.278c0.868,1.519,1.302,3.666,1.302,6.441c0,2.735-0.449,4.879-1.347,6.433
	C119.748-121.044,118.522-120.268,116.968-120.268z M115.727-134.33c-0.787,0-1.355,0.366-1.703,1.097
	c-0.349,0.732-0.533,1.945-0.553,3.641v0.53c0,1.857,0.176,3.209,0.53,4.057c0.353,0.848,0.938,1.271,1.756,1.271
	c1.413,0,2.119-1.786,2.119-5.358c0-1.756-0.174-3.067-0.522-3.936C117.006-133.896,116.463-134.33,115.727-134.33z"/>
<rect x="225.372" y="-183.114" fill="#3C3C3B" width="194.828" height="76.952"/>
<path fill="#9D9D9C" d="M309.662-69.77l-1.68-9.793l-0.591-4.132h-0.061c-0.151,1.342-0.272,2.313-0.363,2.914
	c-0.091,0.6-0.731,4.271-1.923,11.012h-5.176l-3.361-16.862h4.042l1.544,9.294c0.182,1.029,0.439,2.538,0.59,4.526l0,0
	c0.021-0.535,0.092-1.35,0.213-2.445c0.121-1.095,0.206-1.798,0.257-2.111l1.665-9.264h5.177l1.649,9.294
	c0.191,0.989,0.419,2.498,0.561,4.526l0,0c0.141-1.806,0.318-3.315,0.529-4.526l1.605-9.294h3.936l-3.376,16.862H309.662z"/>
<path fill="#9D9D9C" d="M327.826-69.467c-0.727,0-1.369-0.164-1.93-0.492c-0.561-0.328-1.082-0.905-1.566-1.733h-0.1
	c0.162,1.373,0.129,2.2,0.129,2.482v6.887h-4.057v-24.31h3.119l0.695,2.195h0.182c0.838-1.675,2.054-2.513,3.648-2.513
	c1.533,0,2.734,0.759,3.603,2.278c0.868,1.519,1.302,3.666,1.302,6.441c0,2.735-0.449,4.879-1.348,6.433
	C330.605-70.244,329.38-69.467,327.826-69.467z M326.585-83.529c-0.787,0-1.354,0.366-1.702,1.097
	c-0.35,0.732-0.533,1.945-0.553,3.641v0.53c0,1.857,0.176,3.209,0.529,4.057s0.938,1.271,1.756,1.271
	c1.412,0,2.119-1.786,2.119-5.358c0-1.756-0.174-3.067-0.521-3.936C327.863-83.095,327.321-83.529,326.585-83.529z"/>
<path fill="#706F6F" d="M335.061-76.309v-3.542h7.615v3.542H335.061z"/>
<path fill="#3C3C3B" d="M351.273-69.77h-4.104v-18.512h-4.238V-91.9h12.58v3.618h-4.238V-69.77z"/>
<path fill="#3C3C3B" d="M355.512-86.632h4.178l2.33,9.521c0.232,0.848,0.51,2.034,0.65,3.557l0,0
	c0.01-0.242,0.057-0.674,0.137-1.294c0.08-0.621,0.146-1.107,0.197-1.461c0.051-0.353,0.746-3.794,2.088-10.323h4.238l-4.828,18.073
	c-0.586,2.22-1.361,3.814-2.33,4.783s-2.262,1.453-3.875,1.453c-0.799,0-1.51-0.086-2.135-0.257v-3.375
	c0.414,0.121,0.877,0.182,1.393,0.182c1.352,0,2.24-0.888,2.664-2.664l0.287-1.06L355.512-86.632z"/>
<path fill="#3C3C3B" d="M378.816-69.467c-0.727,0-1.371-0.164-1.932-0.492c-0.559-0.328-1.082-0.905-1.566-1.733h-0.1
	c0.162,1.373,0.131,2.2,0.131,2.482v6.887h-4.057v-24.31h3.117l0.697,2.195h0.182c0.838-1.675,2.053-2.513,3.648-2.513
	c1.533,0,2.734,0.759,3.602,2.278c0.867,1.519,1.303,3.666,1.303,6.441c0,2.735-0.449,4.879-1.348,6.433
	C381.596-70.244,380.369-69.467,378.816-69.467z M377.574-83.529c-0.787,0-1.355,0.366-1.703,1.097
	c-0.348,0.732-0.531,1.945-0.553,3.641v0.53c0,1.857,0.178,3.209,0.531,4.057c0.352,0.848,0.938,1.271,1.756,1.271
	c1.412,0,2.119-1.786,2.119-5.358c0-1.756-0.176-3.067-0.523-3.936C378.854-83.095,378.311-83.529,377.574-83.529z"/>
<path fill="#3C3C3B" d="M398.908-78.231c0,2.765-0.586,4.917-1.756,6.456c-1.172,1.539-2.775,2.309-4.814,2.309
	c-1.291,0-2.432-0.353-3.42-1.06c-0.99-0.706-1.752-1.723-2.285-3.05c-0.535-1.327-0.803-2.878-0.803-4.655
	c0-2.734,0.58-4.872,1.74-6.411c1.16-1.539,2.77-2.308,4.828-2.308c1.988,0,3.57,0.785,4.746,2.354
	C398.32-83.027,398.908-80.905,398.908-78.231z M389.947-78.231c0,1.756,0.191,3.083,0.574,3.981c0.385,0.898,1,1.347,1.848,1.347
	c1.613,0,2.422-1.776,2.422-5.328c0-1.766-0.195-3.085-0.582-3.958c-0.389-0.873-1.002-1.309-1.84-1.309
	c-0.848,0-1.463,0.437-1.848,1.309C390.139-81.317,389.947-79.997,389.947-78.231z"/>
<path fill="#706F6F" d="M401.117-76.309v-3.542h7.615v3.542H401.117z"/>
<path fill="#3C3C3B" d="M310.056-49.402v2.361l-2.013,0.454c0.393,0.706,0.59,1.595,0.59,2.664c0,1.786-0.484,3.185-1.453,4.192
	c-0.969,1.01-2.321,1.514-4.057,1.514c-0.505,0-0.878-0.039-1.12-0.121c-0.192,0.172-0.374,0.363-0.545,0.576
	c-0.172,0.211-0.257,0.475-0.257,0.787c0,0.706,0.609,1.059,1.831,1.059h2.437c1.434,0,2.535,0.387,3.309,1.158
	c0.771,0.771,1.157,1.936,1.157,3.489c0,1.958-0.656,3.472-1.968,4.541c-1.312,1.069-3.199,1.604-5.661,1.604
	c-1.867,0-3.306-0.406-4.313-1.219c-1.01-0.812-1.514-1.971-1.514-3.474c0-0.938,0.287-1.763,0.862-2.476
	c0.575-0.711,1.372-1.228,2.392-1.551c-0.515-0.201-0.936-0.515-1.264-0.938s-0.492-0.918-0.492-1.483
	c0-0.343,0.051-0.653,0.151-0.932c0.101-0.277,0.245-0.539,0.431-0.787c0.188-0.246,0.568-0.612,1.144-1.097
	c-0.696-0.424-1.247-1.075-1.649-1.952c-0.404-0.879-0.605-1.852-0.605-2.922c0-1.847,0.484-3.274,1.453-4.283
	c0.969-1.01,2.355-1.514,4.162-1.514c0.343,0,0.736,0.037,1.181,0.113s0.782,0.154,1.015,0.234H310.056z M300.141-30.118
	c0,0.666,0.21,1.179,0.629,1.536c0.418,0.358,1.016,0.537,1.793,0.537c1.221,0,2.137-0.232,2.748-0.695
	c0.61-0.465,0.916-1.101,0.916-1.908c0-0.635-0.164-1.084-0.492-1.347s-0.941-0.394-1.84-0.394h-1.952
	c-0.545,0-0.981,0.205-1.31,0.613S300.141-30.814,300.141-30.118z M301.383-43.923c0,1.988,0.56,2.981,1.68,2.981
	c1.09,0,1.635-1.004,1.635-3.012c0-2.059-0.545-3.088-1.635-3.088C301.942-47.041,301.383-46.002,301.383-43.923z"/>
<path fill="#3C3C3B" d="M319.273-49.75c0.494,0,0.979,0.075,1.453,0.227l-0.469,3.905c-0.283-0.101-0.65-0.151-1.105-0.151
	c-0.979,0-1.73,0.387-2.255,1.158s-0.787,1.895-0.787,3.367v8.674h-4.026v-16.862h3.314l0.455,2.634h0.136
	c0.444-1.06,0.929-1.816,1.453-2.271S318.578-49.75,319.273-49.75z"/>
<path fill="#3C3C3B" d="M330.793-32.57l-0.803-2.301h-0.09c-0.596,0.989-1.211,1.67-1.848,2.043
	c-0.635,0.373-1.438,0.561-2.406,0.561c-1.241,0-2.217-0.464-2.93-1.393c-0.711-0.928-1.066-2.22-1.066-3.875
	c0-1.775,0.486-3.096,1.461-3.959c0.974-0.861,2.43-1.339,4.367-1.43l2.24-0.091v-1.211c0-1.574-0.682-2.361-2.044-2.361
	c-1.009,0-2.17,0.394-3.481,1.181l-1.393-2.785c1.675-1.06,3.496-1.59,5.465-1.59c1.785,0,3.146,0.513,4.078,1.537
	c0.934,1.023,1.4,2.475,1.4,4.352v11.322H330.793z M327.297-35.416c0.736,0,1.324-0.33,1.764-0.992
	c0.438-0.66,0.658-1.541,0.658-2.641v-1.423l-1.242,0.061c-0.918,0.051-1.592,0.313-2.02,0.787c-0.43,0.475-0.645,1.181-0.645,2.119
	C325.812-36.112,326.307-35.416,327.297-35.416z"/>
<path fill="#3C3C3B" d="M360.779-32.57v-10.051c0-2.473-0.621-3.709-1.863-3.709c-0.928,0-1.578,0.487-1.951,1.461
	c-0.375,0.975-0.561,2.375-0.561,4.201v8.098h-4.027v-23.553h4.027v5.237c0,0.677,0.006,1.876-0.068,3.618h0.098
	c0.809-1.655,2.049-2.482,3.725-2.482c1.543,0,2.709,0.521,3.496,1.566s1.182,2.58,1.182,4.609v11.004H360.779z"/>
<path fill="#3C3C3B" d="M366.379-49.433h4.178l2.332,9.521c0.23,0.848,0.508,2.034,0.65,3.558l0,0
	c0.01-0.242,0.055-0.673,0.137-1.294c0.08-0.621,0.145-1.107,0.195-1.461s0.748-3.794,2.09-10.323h4.238l-4.828,18.073
	c-0.586,2.22-1.363,3.814-2.332,4.783s-2.26,1.453-3.875,1.453c-0.797,0-1.508-0.086-2.135-0.258v-3.375
	c0.414,0.121,0.879,0.182,1.393,0.182c1.354,0,2.24-0.889,2.664-2.664l0.289-1.06L366.379-49.433z"/>
<path fill="#3C3C3B" d="M344.521-32.268c-0.727,0-1.369-0.164-1.93-0.492s-1.082-0.905-1.566-1.732h-0.1
	c0.16,1.372,0.129,2.199,0.129,2.482v6.887h-4.057v-24.31h3.119l0.695,2.194h0.182c0.838-1.674,2.055-2.512,3.648-2.512
	c1.533,0,2.734,0.759,3.604,2.277c0.867,1.52,1.301,3.666,1.301,6.441c0,2.734-0.449,4.879-1.348,6.433
	S346.076-32.268,344.521-32.268z M343.281-46.33c-0.787,0-1.355,0.366-1.703,1.098c-0.35,0.732-0.533,1.945-0.553,3.641v0.529
	c0,1.857,0.176,3.209,0.529,4.057s0.939,1.271,1.756,1.271c1.412,0,2.119-1.785,2.119-5.357c0-1.756-0.174-3.068-0.521-3.936
	C344.559-45.896,344.018-46.33,343.281-46.33z"/>
<path fill="#EDEDED" d="M309.709-157.919l-1.68-9.793l-0.591-4.132h-0.061c-0.151,1.342-0.272,2.313-0.363,2.914
	c-0.091,0.6-0.731,4.271-1.923,11.012h-5.176l-3.361-16.862h4.042l1.544,9.294c0.182,1.029,0.439,2.538,0.59,4.526l0,0
	c0.021-0.535,0.092-1.35,0.213-2.445c0.121-1.095,0.206-1.798,0.257-2.111l1.665-9.264h5.177l1.649,9.294
	c0.191,0.989,0.419,2.498,0.561,4.526l0,0c0.141-1.806,0.318-3.315,0.529-4.526l1.605-9.294h3.936l-3.376,16.862H309.709z"/>
<path fill="#EDEDED" d="M327.873-157.616c-0.727,0-1.369-0.164-1.93-0.492c-0.561-0.328-1.082-0.905-1.566-1.733h-0.1
	c0.162,1.373,0.129,2.2,0.129,2.482v6.887h-4.057v-24.31h3.119l0.695,2.195h0.182c0.838-1.675,2.054-2.513,3.648-2.513
	c1.533,0,2.734,0.759,3.603,2.278c0.868,1.519,1.302,3.666,1.302,6.441c0,2.735-0.449,4.879-1.348,6.433
	C330.652-158.393,329.427-157.616,327.873-157.616z M326.632-171.678c-0.787,0-1.354,0.366-1.702,1.097
	c-0.35,0.732-0.533,1.945-0.553,3.641v0.53c0,1.857,0.176,3.209,0.529,4.057s0.938,1.271,1.756,1.271
	c1.412,0,2.119-1.786,2.119-5.358c0-1.756-0.174-3.067-0.521-3.936C327.91-171.244,327.368-171.678,326.632-171.678z"/>
<path fill="#B2B2B2" d="M335.107-164.458V-168h7.615v3.542H335.107z"/>
<path fill="#878787" d="M351.32-157.919h-4.104v-18.512h-4.238v-3.618h12.58v3.618h-4.238V-157.919z"/>
<path fill="#878787" d="M355.559-174.781h4.178l2.33,9.521c0.232,0.848,0.51,2.034,0.65,3.557l0,0
	c0.01-0.242,0.057-0.674,0.137-1.294c0.08-0.621,0.146-1.107,0.197-1.461c0.051-0.353,0.746-3.794,2.088-10.323h4.238l-4.828,18.073
	c-0.586,2.22-1.361,3.814-2.33,4.783s-2.262,1.453-3.875,1.453c-0.799,0-1.51-0.086-2.135-0.257v-3.375
	c0.414,0.121,0.877,0.182,1.393,0.182c1.352,0,2.24-0.888,2.664-2.664l0.287-1.06L355.559-174.781z"/>
<path fill="#878787" d="M378.863-157.616c-0.727,0-1.371-0.164-1.932-0.492c-0.559-0.328-1.082-0.905-1.566-1.733h-0.1
	c0.162,1.373,0.131,2.2,0.131,2.482v6.887h-4.057v-24.31h3.117l0.697,2.195h0.182c0.838-1.675,2.053-2.513,3.648-2.513
	c1.533,0,2.734,0.759,3.602,2.278c0.867,1.519,1.303,3.666,1.303,6.441c0,2.735-0.449,4.879-1.348,6.433
	C381.643-158.393,380.416-157.616,378.863-157.616z M377.621-171.678c-0.787,0-1.355,0.366-1.703,1.097
	c-0.348,0.732-0.531,1.945-0.553,3.641v0.53c0,1.857,0.178,3.209,0.531,4.057c0.352,0.848,0.938,1.271,1.756,1.271
	c1.412,0,2.119-1.786,2.119-5.358c0-1.756-0.176-3.067-0.523-3.936C378.9-171.244,378.357-171.678,377.621-171.678z"/>
<path fill="#878787" d="M398.955-166.38c0,2.765-0.586,4.917-1.756,6.456c-1.172,1.539-2.775,2.309-4.814,2.309
	c-1.291,0-2.432-0.353-3.42-1.06c-0.99-0.706-1.752-1.723-2.285-3.05c-0.535-1.327-0.803-2.878-0.803-4.655
	c0-2.734,0.58-4.872,1.74-6.411c1.16-1.539,2.77-2.308,4.828-2.308c1.988,0,3.57,0.785,4.746,2.354
	C398.367-171.176,398.955-169.054,398.955-166.38z M389.994-166.38c0,1.756,0.191,3.083,0.574,3.981
	c0.385,0.898,1,1.347,1.848,1.347c1.613,0,2.422-1.776,2.422-5.328c0-1.766-0.195-3.085-0.582-3.958
	c-0.389-0.873-1.002-1.309-1.84-1.309c-0.848,0-1.463,0.437-1.848,1.309C390.186-169.466,389.994-168.146,389.994-166.38z"/>
<path fill="#B2B2B2" d="M401.164-164.458V-168h7.615v3.542H401.164z"/>
<path fill="#878787" d="M310.103-137.551v2.361l-2.013,0.454c0.393,0.707,0.59,1.595,0.59,2.664c0,1.786-0.484,3.184-1.453,4.193
	c-0.969,1.009-2.321,1.514-4.057,1.514c-0.505,0-0.878-0.04-1.12-0.121c-0.192,0.172-0.374,0.363-0.545,0.575
	c-0.172,0.212-0.257,0.475-0.257,0.787c0,0.707,0.609,1.06,1.831,1.06h2.437c1.434,0,2.535,0.386,3.309,1.158
	c0.771,0.771,1.157,1.935,1.157,3.489c0,1.958-0.656,3.471-1.968,4.541c-1.312,1.069-3.199,1.604-5.661,1.604
	c-1.867,0-3.306-0.406-4.313-1.218c-1.01-0.812-1.514-1.971-1.514-3.474c0-0.938,0.287-1.763,0.862-2.475
	c0.575-0.711,1.372-1.228,2.392-1.551c-0.515-0.202-0.936-0.515-1.264-0.938s-0.492-0.918-0.492-1.483
	c0-0.343,0.051-0.653,0.151-0.931c0.101-0.277,0.245-0.54,0.431-0.787c0.188-0.247,0.568-0.613,1.144-1.097
	c-0.696-0.424-1.247-1.075-1.649-1.953c-0.404-0.878-0.605-1.852-0.605-2.921c0-1.847,0.484-3.274,1.453-4.284
	c0.969-1.009,2.355-1.514,4.162-1.514c0.343,0,0.736,0.038,1.181,0.113c0.444,0.076,0.782,0.154,1.015,0.235H310.103z
	 M300.188-118.267c0,0.666,0.21,1.178,0.629,1.537c0.418,0.358,1.016,0.537,1.793,0.537c1.221,0,2.137-0.232,2.748-0.696
	c0.61-0.464,0.916-1.1,0.916-1.907c0-0.636-0.164-1.085-0.492-1.347c-0.328-0.263-0.941-0.394-1.84-0.394h-1.952
	c-0.545,0-0.981,0.205-1.31,0.613C300.352-119.516,300.188-118.963,300.188-118.267z M301.43-132.072c0,1.988,0.56,2.982,1.68,2.982
	c1.09,0,1.635-1.004,1.635-3.012c0-2.059-0.545-3.088-1.635-3.088C301.989-135.19,301.43-134.15,301.43-132.072z"/>
<path fill="#878787" d="M319.32-137.899c0.494,0,0.979,0.076,1.453,0.227l-0.469,3.905c-0.283-0.101-0.65-0.151-1.105-0.151
	c-0.979,0-1.73,0.386-2.255,1.158c-0.524,0.772-0.787,1.895-0.787,3.368v8.673h-4.026v-16.862h3.314l0.455,2.634h0.136
	c0.444-1.06,0.929-1.816,1.453-2.271S318.625-137.899,319.32-137.899z"/>
<path fill="#878787" d="M330.84-120.719l-0.803-2.301h-0.09c-0.596,0.989-1.211,1.67-1.848,2.043
	c-0.635,0.373-1.438,0.56-2.406,0.56c-1.241,0-2.217-0.464-2.93-1.393c-0.711-0.928-1.066-2.22-1.066-3.875
	c0-1.776,0.486-3.095,1.461-3.958c0.974-0.862,2.43-1.339,4.367-1.43l2.24-0.091v-1.211c0-1.574-0.682-2.361-2.044-2.361
	c-1.009,0-2.17,0.394-3.481,1.181l-1.393-2.785c1.675-1.06,3.496-1.589,5.465-1.589c1.785,0,3.146,0.512,4.078,1.536
	c0.934,1.024,1.4,2.475,1.4,4.352v11.322H330.84z M327.344-123.565c0.736,0,1.324-0.331,1.764-0.992
	c0.438-0.661,0.658-1.541,0.658-2.641v-1.423l-1.242,0.061c-0.918,0.051-1.592,0.313-2.02,0.787
	c-0.43,0.475-0.645,1.181-0.645,2.119C325.859-124.261,326.354-123.565,327.344-123.565z"/>
<path fill="#878787" d="M360.826-120.969v-10.051c0-2.472-0.621-3.708-1.863-3.708c-0.928,0-1.578,0.487-1.951,1.461
	c-0.375,0.974-0.561,2.374-0.561,4.2v8.098h-4.027v-23.553h4.027v5.237c0,0.676,0.006,1.876-0.068,3.618h0.098
	c0.809-1.655,2.049-2.482,3.725-2.482c1.543,0,2.709,0.522,3.496,1.566c0.787,1.045,1.182,2.581,1.182,4.609v11.004H360.826z"/>
<path fill="#878787" d="M366.426-137.831h4.178l2.332,9.521c0.23,0.848,0.508,2.034,0.65,3.557l0,0
	c0.01-0.242,0.055-0.673,0.137-1.294c0.08-0.62,0.145-1.107,0.195-1.46c0.051-0.353,0.748-3.794,2.09-10.323h4.238l-4.828,18.073
	c-0.586,2.22-1.363,3.814-2.332,4.783s-2.26,1.453-3.875,1.453c-0.797,0-1.508-0.086-2.135-0.257v-3.375
	c0.414,0.121,0.879,0.182,1.393,0.182c1.354,0,2.24-0.888,2.664-2.664l0.289-1.06L366.426-137.831z"/>
<path fill="#878787" d="M344.568-120.666c-0.727,0-1.369-0.164-1.93-0.492c-0.561-0.328-1.082-0.905-1.566-1.733h-0.1
	c0.16,1.373,0.129,2.2,0.129,2.482v6.887h-4.057v-24.31h3.119l0.695,2.195h0.182c0.838-1.675,2.055-2.513,3.648-2.513
	c1.533,0,2.734,0.759,3.604,2.278c0.867,1.519,1.301,3.666,1.301,6.441c0,2.735-0.449,4.879-1.348,6.433
	C347.348-121.443,346.123-120.666,344.568-120.666z M343.328-134.728c-0.787,0-1.355,0.366-1.703,1.097
	c-0.35,0.732-0.533,1.945-0.553,3.641v0.53c0,1.857,0.176,3.209,0.529,4.057s0.939,1.271,1.756,1.271
	c1.412,0,2.119-1.786,2.119-5.358c0-1.756-0.174-3.067-0.521-3.936C344.605-134.294,344.064-134.728,343.328-134.728z"/>
<g>
	<rect y="-0.001" fill="#FDEEF6" width="70.892" height="70.893"/>
	<g>
		<path fill="#FBBA00" d="M24.825,5.15c0,0.869-0.796,1.579-1.771,1.579h-7.495c-0.973,0-1.77,0.798-1.77,1.771v11.044
			c0,0.975-0.711,1.771-1.58,1.771c-0.869,0-1.58-0.797-1.58-1.771V5.341c0-0.974,0.796-1.77,1.77-1.77h10.655
			C24.028,3.571,24.825,4.281,24.825,5.15z"/>
		<g>
			<path fill="#EF7D00" d="M15.64,44.623c0.48,0.844,0.103,1.533-0.841,1.533c-0.943,0-2.167-0.651-2.722-1.446l-5.399-7.744
				c-0.554-0.795-0.555-2.098-0.001-2.894l5.4-7.762c0.555-0.796,1.779-1.447,2.722-1.447c0.943,0,1.322,0.69,0.842,1.532
				l-4.318,7.592c-0.479,0.844-0.479,2.223,0.001,3.064L15.64,44.623z"/>
			<path fill="#EF7D00" d="M24.615,44.623c0.481,0.844,0.103,1.533-0.841,1.533c-0.942,0-2.167-0.651-2.722-1.446l-5.399-7.744
				c-0.555-0.795-0.555-2.098-0.001-2.894l5.401-7.762c0.554-0.796,1.779-1.447,2.721-1.447c0.944,0,1.322,0.69,0.842,1.532
				l-4.319,7.592c-0.479,0.844-0.479,2.222,0.001,3.064L24.615,44.623z"/>
		</g>
		<g>
			<path fill="#E4032E" d="M17.538,51.773c0,0.974-0.024,2.567-0.056,3.54c0,0-0.01,0.303-0.142,1.121
				c-0.133,0.818-0.48,1.64-1.042,2.459c-0.562,0.817-1.428,1.492-2.598,2.023l-0.086-0.133c-0.531-0.816-0.369-2.01,0.361-2.652
				c0,0,1.231-1.085,1.247-3.535h-0.43c-0.974,0-1.77-0.796-1.77-1.769v-1.353c0-0.973,0.796-1.77,1.77-1.77h0.977
				c0.973,0,1.77,0.797,1.77,1.77V51.773z"/>
			<path fill="#E4032E" d="M24.825,51.773c0,0.974-0.025,2.567-0.057,3.54c0,0-0.01,0.303-0.141,1.121
				c-0.133,0.818-0.477,1.64-1.03,2.459c-0.554,0.817-1.425,1.492-2.61,2.023L20.9,60.784c-0.532-0.816-0.369-2.008,0.363-2.65
				c0,0,1.237-1.087,1.268-3.537h-0.454c-0.974,0-1.77-0.796-1.77-1.769v-1.353c0-0.973,0.796-1.77,1.77-1.77h0.977
				c0.974,0,1.771,0.797,1.771,1.77V51.773z"/>
		</g>
		<path fill="#FBBA00" d="M46.118,65.87c0-0.869,0.796-1.579,1.771-1.579h7.495c0.973,0,1.77-0.798,1.77-1.771V51.477
			c0-0.974,0.711-1.771,1.58-1.771c0.869,0,1.58,0.797,1.58,1.771v14.204c0,0.973-0.796,1.77-1.77,1.77H47.888
			C46.914,67.45,46.118,66.739,46.118,65.87z"/>
		<g>
			<path fill="#EF7D00" d="M55.303,26.396c-0.48-0.843-0.103-1.532,0.84-1.532c0.943,0,2.168,0.652,2.723,1.447l5.399,7.742
				c0.554,0.795,0.555,2.098,0.001,2.895l-5.401,7.762c-0.554,0.797-1.778,1.447-2.722,1.447c-0.943,0-1.321-0.689-0.842-1.533
				l4.318-7.591c0.48-0.843,0.479-2.223-0.001-3.064L55.303,26.396z"/>
			<path fill="#EF7D00" d="M46.327,26.396c-0.48-0.843-0.102-1.532,0.841-1.532c0.942,0,2.168,0.652,2.722,1.447l5.398,7.742
				c0.555,0.795,0.556,2.098,0.001,2.895l-5.4,7.762c-0.554,0.797-1.779,1.447-2.721,1.447c-0.943,0-1.322-0.689-0.842-1.533
				l4.32-7.591c0.479-0.843,0.479-2.222-0.001-3.064L46.327,26.396z"/>
		</g>
		<g>
			<path fill="#E4032E" d="M53.404,19.247c0-0.974,0.025-2.566,0.056-3.539c0,0,0.01-0.305,0.142-1.122
				c0.132-0.819,0.48-1.64,1.041-2.458c0.562-0.818,1.428-1.493,2.599-2.023l0.086,0.133c0.531,0.814,0.369,2.009-0.361,2.651
				c0,0-1.231,1.085-1.247,3.535h0.43c0.974,0,1.77,0.796,1.77,1.769v1.353c0,0.974-0.796,1.771-1.77,1.771h-0.977
				c-0.974,0-1.77-0.797-1.77-1.771V19.247z"/>
			<path fill="#E4032E" d="M46.118,19.247c0-0.974,0.025-2.566,0.057-3.539c0,0,0.009-0.305,0.141-1.122
				c0.133-0.819,0.476-1.64,1.03-2.458s1.425-1.493,2.609-2.023l0.087,0.133c0.532,0.814,0.369,2.007-0.363,2.649
				c0,0-1.237,1.087-1.268,3.537h0.454c0.974,0,1.77,0.796,1.77,1.769v1.353c0,0.974-0.796,1.771-1.77,1.771h-0.977
				c-0.974,0-1.771-0.797-1.771-1.771V19.247z"/>
		</g>
		<path fill="#E4032E" d="M35.342,28.042c0.355,0.195,0.718,0.372,1.091,0.531c0.382,0.162,0.773,0.244,1.172,0.244
			c0.95,0,1.729-0.34,2.339-1.018c0.459-0.513,0.774-1.201,0.954-2.061c0.099-0.473-0.106-0.9-0.723-0.9
			c-0.748,0-0.936,0.307-0.985,0.443c-0.284,0.773-0.748,1.162-1.39,1.162c-0.316,0-0.647-0.082-0.991-0.244
			c-0.344-0.163-0.698-0.345-1.061-0.545c-0.354-0.193-0.718-0.371-1.091-0.531c-0.381-0.162-0.772-0.243-1.172-0.243
			c-0.95,0-1.729,0.339-2.339,1.019c-0.459,0.512-0.774,1.199-0.954,2.06c-0.099,0.474,0.106,0.899,0.723,0.899
			c0.748,0,0.936-0.307,0.985-0.441c0.284-0.775,0.748-1.163,1.39-1.163c0.316,0,0.647,0.083,0.991,0.244
			C34.625,27.661,34.979,27.843,35.342,28.042L35.342,28.042z"/>
		<path fill="#E4032E" d="M31.851,32.74L31.851,32.74c0.465-0.734,1.126-1.304,1.982-1.702c0.856-0.401,1.806-0.602,2.848-0.602
			c3.705,0,5.557,1.885,5.557,5.655v8.774c0,0.709-0.578,1.291-1.286,1.291h-0.709c-0.707,0-1.285-0.582-1.285-1.291l-0.016-8.202
			c0-1.191-0.239-2.08-0.719-2.667c-0.479-0.586-1.241-0.879-2.283-0.879c-1.387,0-2.401,0.408-3.043,1.228
			c-0.643,0.819-0.963,2.192-0.963,4.118l-0.001,6.402c0,0.709-0.578,1.291-1.286,1.291h-0.708c-0.707,0-1.285-0.582-1.285-1.291
			V32.007c0-0.709,0.578-1.291,1.286-1.291h0.555C31.202,30.716,31.604,31.337,31.851,32.74z"/>
	</g>
</g>
<g>
	<path fill="#FBBA00" d="M26.737-85.299c0,0.734-0.672,1.333-1.494,1.333h-6.329c-0.821,0-1.494,0.673-1.494,1.495v9.325
		c0,0.823-0.6,1.496-1.334,1.496s-1.334-0.673-1.334-1.496v-11.992c0-0.822,0.673-1.494,1.495-1.494h8.997
		C26.065-86.632,26.737-86.033,26.737-85.299z"/>
	<g>
		<path fill="#EF7D00" d="M18.983-51.972c0.405,0.713,0.086,1.295-0.71,1.295s-1.831-0.551-2.299-1.223l-4.558-6.538
			c-0.468-0.671-0.469-1.771,0-2.442l4.56-6.554c0.468-0.672,1.501-1.222,2.298-1.222s1.116,0.583,0.71,1.293l-3.646,6.41
			c-0.404,0.712-0.404,1.876,0.002,2.587L18.983-51.972z"/>
		<path fill="#EF7D00" d="M26.561-51.972c0.406,0.713,0.086,1.295-0.711,1.295c-0.794,0-1.83-0.551-2.297-1.223l-4.559-6.538
			c-0.468-0.671-0.469-1.771,0-2.442l4.56-6.554c0.468-0.672,1.502-1.222,2.297-1.222c0.797,0,1.117,0.583,0.712,1.293l-3.647,6.41
			c-0.405,0.712-0.404,1.876,0.001,2.587L26.561-51.972z"/>
	</g>
	<g>
		<path fill="#E4032E" d="M20.585-45.935c0,0.821-0.021,2.167-0.047,2.988c0,0-0.008,0.256-0.12,0.946
			c-0.112,0.691-0.405,1.386-0.879,2.076c-0.475,0.691-1.206,1.26-2.193,1.709l-0.073-0.112c-0.449-0.689-0.312-1.697,0.304-2.239
			c0,0,1.041-0.916,1.054-2.985h-0.364c-0.822,0-1.495-0.671-1.495-1.492v-1.143c0-0.821,0.673-1.494,1.495-1.494h0.825
			c0.822,0,1.494,0.673,1.494,1.494V-45.935z"/>
		<path fill="#E4032E" d="M26.737-45.935c0,0.821-0.021,2.167-0.048,2.988c0,0-0.008,0.256-0.119,0.946
			c-0.112,0.691-0.402,1.386-0.871,2.076c-0.467,0.691-1.202,1.26-2.203,1.709l-0.073-0.112c-0.449-0.689-0.312-1.695,0.307-2.238
			c0,0,1.043-0.917,1.07-2.986h-0.382c-0.823,0-1.495-0.671-1.495-1.492v-1.143c0-0.821,0.672-1.494,1.495-1.494h0.825
			c0.822,0,1.494,0.673,1.494,1.494V-45.935z"/>
	</g>
	<path fill="#FBBA00" d="M44.715-34.033c0-0.733,0.673-1.332,1.496-1.332h6.328c0.821,0,1.494-0.675,1.494-1.496v-9.323
		c0-0.823,0.601-1.496,1.334-1.496c0.734,0,1.334,0.673,1.334,1.496v11.991c0,0.821-0.671,1.494-1.494,1.494h-8.996
		C45.388-32.699,44.715-33.3,44.715-34.033z"/>
	<g>
		<path fill="#EF7D00" d="M52.471-67.361c-0.406-0.711-0.086-1.293,0.709-1.293c0.797,0,1.831,0.551,2.299,1.222l4.559,6.537
			c0.467,0.671,0.469,1.771,0,2.443l-4.56,6.553c-0.468,0.673-1.502,1.223-2.299,1.223c-0.795,0-1.115-0.582-0.71-1.295l3.646-6.408
			c0.406-0.712,0.405-1.877-0.001-2.587L52.471-67.361z"/>
		<path fill="#EF7D00" d="M44.892-67.361c-0.405-0.711-0.085-1.293,0.711-1.293c0.795,0,1.831,0.551,2.299,1.222l4.558,6.537
			c0.468,0.671,0.468,1.771,0,2.443l-4.56,6.553c-0.467,0.673-1.501,1.223-2.297,1.223c-0.796,0-1.116-0.582-0.711-1.295
			l3.647-6.408c0.405-0.712,0.404-1.876-0.001-2.587L44.892-67.361z"/>
	</g>
	<g>
		<path fill="#E4032E" d="M50.868-73.397c0-0.822,0.021-2.167,0.047-2.988c0,0,0.008-0.257,0.12-0.947
			c0.112-0.692,0.405-1.384,0.879-2.075c0.475-0.691,1.206-1.261,2.195-1.708l0.072,0.112c0.449,0.688,0.312,1.696-0.305,2.239
			c0,0-1.039,0.916-1.052,2.985h0.363c0.822,0,1.494,0.672,1.494,1.493v1.142c0,0.822-0.672,1.495-1.494,1.495h-0.825
			c-0.822,0-1.494-0.673-1.494-1.495V-73.397z"/>
		<path fill="#E4032E" d="M44.715-73.397c0-0.822,0.021-2.167,0.049-2.988c0,0,0.007-0.257,0.119-0.947
			c0.112-0.692,0.402-1.384,0.869-2.075c0.468-0.691,1.204-1.261,2.203-1.708l0.074,0.112c0.449,0.688,0.311,1.695-0.307,2.237
			c0,0-1.044,0.917-1.071,2.986h0.383c0.821,0,1.494,0.672,1.494,1.493v1.142c0,0.822-0.673,1.495-1.494,1.495h-0.825
			c-0.823,0-1.496-0.673-1.496-1.495V-73.397z"/>
	</g>
	<path fill="#E4032E" d="M35.618-65.972c0.3,0.165,0.606,0.314,0.922,0.449c0.321,0.137,0.652,0.206,0.989,0.206
		c0.801,0,1.459-0.287,1.975-0.859c0.389-0.433,0.654-1.014,0.806-1.74c0.084-0.399-0.09-0.76-0.61-0.76
		c-0.631,0-0.79,0.259-0.832,0.374c-0.24,0.653-0.631,0.981-1.173,0.981c-0.267,0-0.546-0.069-0.837-0.206
		c-0.291-0.138-0.59-0.291-0.896-0.46c-0.298-0.163-0.605-0.313-0.921-0.448c-0.322-0.137-0.652-0.206-0.99-0.206
		c-0.801,0-1.459,0.286-1.974,0.86c-0.388,0.432-0.654,1.012-0.806,1.739c-0.083,0.4,0.091,0.759,0.61,0.759
		c0.631,0,0.79-0.259,0.833-0.373c0.239-0.655,0.631-0.982,1.172-0.982c0.267,0,0.547,0.07,0.838,0.206
		C35.012-66.293,35.311-66.14,35.618-65.972L35.618-65.972z"/>
	<path fill="#E4032E" d="M32.671-62.005L32.671-62.005c0.392-0.62,0.95-1.101,1.674-1.437c0.722-0.339,1.524-0.508,2.404-0.508
		c3.128,0,4.691,1.591,4.691,4.775v7.408c0,0.599-0.488,1.09-1.085,1.09h-0.599c-0.597,0-1.085-0.491-1.085-1.09l-0.013-6.925
		c0-1.006-0.202-1.757-0.606-2.252c-0.405-0.495-1.047-0.742-1.928-0.742c-1.171,0-2.027,0.345-2.569,1.036
		c-0.542,0.692-0.813,1.851-0.813,3.477l-0.002,5.406c0,0.599-0.488,1.09-1.085,1.09h-0.598c-0.597,0-1.085-0.491-1.085-1.09
		v-10.857c0-0.599,0.488-1.09,1.086-1.09h0.469C32.123-63.714,32.461-63.189,32.671-62.005z"/>
</g>
<g>
	<path fill="#FFF1C4" d="M26.737-173.299c0,0.734-0.672,1.333-1.494,1.333h-6.329c-0.821,0-1.494,0.673-1.494,1.495v9.325
		c0,0.823-0.6,1.496-1.334,1.496s-1.334-0.673-1.334-1.496v-11.992c0-0.822,0.673-1.494,1.495-1.494h8.997
		C26.065-174.632,26.737-174.033,26.737-173.299z"/>
	<g>
		<path fill="#FAC39D" d="M18.983-139.972c0.405,0.713,0.086,1.295-0.71,1.295s-1.831-0.551-2.299-1.223l-4.558-6.538
			c-0.468-0.671-0.469-1.771,0-2.442l4.56-6.554c0.468-0.672,1.501-1.222,2.298-1.222s1.116,0.583,0.71,1.293l-3.646,6.41
			c-0.404,0.712-0.404,1.876,0.002,2.587L18.983-139.972z"/>
		<path fill="#FAC39D" d="M26.561-139.972c0.406,0.713,0.086,1.295-0.711,1.295c-0.794,0-1.83-0.551-2.297-1.223l-4.559-6.538
			c-0.468-0.671-0.469-1.771,0-2.442l4.56-6.554c0.468-0.672,1.502-1.222,2.297-1.222c0.797,0,1.117,0.583,0.712,1.293l-3.647,6.41
			c-0.405,0.712-0.404,1.876,0.001,2.587L26.561-139.972z"/>
	</g>
	<g>
		<path fill="#F2908E" d="M20.585-133.935c0,0.821-0.021,2.167-0.047,2.988c0,0-0.008,0.256-0.12,0.946
			c-0.112,0.691-0.405,1.386-0.879,2.076c-0.475,0.691-1.206,1.26-2.193,1.709l-0.073-0.112c-0.449-0.689-0.312-1.697,0.304-2.239
			c0,0,1.041-0.916,1.054-2.985h-0.364c-0.822,0-1.495-0.671-1.495-1.492v-1.143c0-0.821,0.673-1.494,1.495-1.494h0.825
			c0.822,0,1.494,0.673,1.494,1.494V-133.935z"/>
		<path fill="#F2908E" d="M26.737-133.935c0,0.821-0.021,2.167-0.048,2.988c0,0-0.008,0.256-0.119,0.946
			c-0.112,0.691-0.402,1.386-0.871,2.076c-0.467,0.691-1.202,1.26-2.203,1.709l-0.073-0.112c-0.449-0.689-0.312-1.695,0.307-2.238
			c0,0,1.043-0.917,1.07-2.986h-0.382c-0.823,0-1.495-0.671-1.495-1.492v-1.143c0-0.821,0.672-1.494,1.495-1.494h0.825
			c0.822,0,1.494,0.673,1.494,1.494V-133.935z"/>
	</g>
	<path fill="#FFF1C4" d="M44.715-122.033c0-0.733,0.673-1.332,1.496-1.332h6.328c0.821,0,1.494-0.675,1.494-1.496v-9.323
		c0-0.823,0.601-1.496,1.334-1.496c0.734,0,1.334,0.673,1.334,1.496v11.991c0,0.821-0.671,1.494-1.494,1.494h-8.996
		C45.388-120.699,44.715-121.3,44.715-122.033z"/>
	<g>
		<path fill="#FAC39D" d="M52.471-155.361c-0.406-0.711-0.086-1.293,0.709-1.293c0.797,0,1.831,0.551,2.299,1.222l4.559,6.537
			c0.467,0.671,0.469,1.771,0,2.443l-4.56,6.553c-0.468,0.673-1.502,1.223-2.299,1.223c-0.795,0-1.115-0.582-0.71-1.295l3.646-6.408
			c0.406-0.712,0.405-1.877-0.001-2.587L52.471-155.361z"/>
		<path fill="#FAC39D" d="M44.892-155.361c-0.405-0.711-0.085-1.293,0.711-1.293c0.795,0,1.831,0.551,2.299,1.222l4.558,6.537
			c0.468,0.671,0.468,1.771,0,2.443l-4.56,6.553c-0.467,0.673-1.501,1.223-2.297,1.223c-0.796,0-1.116-0.582-0.711-1.295
			l3.647-6.408c0.405-0.712,0.404-1.876-0.001-2.587L44.892-155.361z"/>
	</g>
	<g>
		<path fill="#F2908E" d="M50.868-161.397c0-0.822,0.021-2.167,0.047-2.988c0,0,0.008-0.257,0.12-0.947
			c0.112-0.692,0.405-1.384,0.879-2.075c0.475-0.691,1.206-1.261,2.195-1.708l0.072,0.112c0.449,0.688,0.312,1.696-0.305,2.239
			c0,0-1.039,0.916-1.052,2.985h0.363c0.822,0,1.494,0.672,1.494,1.493v1.142c0,0.822-0.672,1.495-1.494,1.495h-0.825
			c-0.822,0-1.494-0.673-1.494-1.495V-161.397z"/>
		<path fill="#F2908E" d="M44.715-161.397c0-0.822,0.021-2.167,0.049-2.988c0,0,0.007-0.257,0.119-0.947
			c0.112-0.692,0.402-1.384,0.869-2.075c0.468-0.691,1.204-1.261,2.203-1.708l0.074,0.112c0.449,0.688,0.311,1.695-0.307,2.237
			c0,0-1.044,0.917-1.071,2.986h0.383c0.821,0,1.494,0.672,1.494,1.493v1.142c0,0.822-0.673,1.495-1.494,1.495h-0.825
			c-0.823,0-1.496-0.673-1.496-1.495V-161.397z"/>
	</g>
	<path fill="#F2908E" d="M35.618-153.972c0.3,0.165,0.606,0.314,0.922,0.449c0.321,0.137,0.652,0.206,0.989,0.206
		c0.801,0,1.459-0.287,1.975-0.859c0.389-0.433,0.654-1.014,0.806-1.74c0.084-0.399-0.09-0.76-0.61-0.76
		c-0.631,0-0.79,0.259-0.832,0.374c-0.24,0.653-0.631,0.981-1.173,0.981c-0.267,0-0.546-0.069-0.837-0.206
		c-0.291-0.138-0.59-0.291-0.896-0.46c-0.298-0.163-0.605-0.313-0.921-0.448c-0.322-0.137-0.652-0.206-0.99-0.206
		c-0.801,0-1.459,0.286-1.974,0.86c-0.388,0.432-0.654,1.012-0.806,1.739c-0.083,0.4,0.091,0.759,0.61,0.759
		c0.631,0,0.79-0.259,0.833-0.373c0.239-0.655,0.631-0.982,1.172-0.982c0.267,0,0.547,0.07,0.838,0.206
		C35.012-154.293,35.311-154.14,35.618-153.972L35.618-153.972z"/>
	<path fill="#F2908E" d="M32.671-150.005L32.671-150.005c0.392-0.62,0.95-1.101,1.674-1.437c0.722-0.339,1.524-0.508,2.404-0.508
		c3.128,0,4.691,1.591,4.691,4.775v7.408c0,0.599-0.488,1.09-1.085,1.09h-0.599c-0.597,0-1.085-0.491-1.085-1.09l-0.013-6.925
		c0-1.006-0.202-1.757-0.606-2.252c-0.405-0.495-1.047-0.742-1.928-0.742c-1.171,0-2.027,0.345-2.569,1.036
		c-0.542,0.692-0.813,1.851-0.813,3.477l-0.002,5.406c0,0.599-0.488,1.09-1.085,1.09h-0.598c-0.597,0-1.085-0.491-1.085-1.09
		v-10.857c0-0.599,0.488-1.09,1.086-1.09h0.469C32.123-151.714,32.461-151.189,32.671-150.005z"/>
</g>
<g>
	<path fill="#EDEDED" d="M252.109-173.299c0,0.734-0.672,1.333-1.493,1.333h-6.329c-0.821,0-1.494,0.673-1.494,1.495v9.325
		c0,0.823-0.6,1.496-1.334,1.496s-1.334-0.673-1.334-1.496v-11.992c0-0.822,0.672-1.494,1.494-1.494h8.997
		C251.438-174.632,252.109-174.033,252.109-173.299z"/>
	<g>
		<path fill="#B2B2B2" d="M244.355-139.971c0.404,0.713,0.086,1.295-0.71,1.295s-1.831-0.551-2.299-1.223l-4.558-6.538
			c-0.469-0.671-0.469-1.771-0.001-2.442l4.56-6.554c0.469-0.672,1.502-1.222,2.298-1.222s1.116,0.583,0.71,1.293l-3.646,6.41
			c-0.403,0.712-0.403,1.876,0.002,2.587L244.355-139.971z"/>
		<path fill="#B2B2B2" d="M251.934-139.971c0.406,0.713,0.086,1.295-0.711,1.295c-0.795,0-1.83-0.551-2.297-1.223l-4.559-6.538
			c-0.469-0.671-0.469-1.771-0.001-2.442l4.56-6.554c0.469-0.672,1.502-1.222,2.297-1.222c0.797,0,1.117,0.583,0.712,1.293
			l-3.647,6.41c-0.404,0.712-0.404,1.876,0.002,2.587L251.934-139.971z"/>
	</g>
	<g>
		<path fill="#878787" d="M245.958-133.934c0,0.821-0.021,2.167-0.047,2.988c0,0-0.009,0.256-0.12,0.946
			c-0.112,0.691-0.404,1.386-0.879,2.076c-0.475,0.691-1.205,1.26-2.193,1.709l-0.073-0.112c-0.448-0.689-0.312-1.697,0.304-2.239
			c0,0,1.041-0.916,1.055-2.985h-0.364c-0.821,0-1.495-0.671-1.495-1.492v-1.143c0-0.821,0.674-1.494,1.495-1.494h0.825
			c0.821,0,1.493,0.673,1.493,1.494V-133.934z"/>
		<path fill="#878787" d="M252.109-133.934c0,0.821-0.021,2.167-0.047,2.988c0,0-0.009,0.256-0.119,0.946
			c-0.111,0.691-0.402,1.386-0.871,2.076c-0.467,0.691-1.201,1.26-2.203,1.709l-0.072-0.112c-0.449-0.689-0.312-1.695,0.307-2.238
			c0,0,1.044-0.917,1.07-2.986h-0.383c-0.822,0-1.494-0.671-1.494-1.492v-1.143c0-0.821,0.672-1.494,1.494-1.494h0.825
			c0.821,0,1.493,0.673,1.493,1.494V-133.934z"/>
	</g>
	<path fill="#EDEDED" d="M270.088-122.033c0-0.733,0.673-1.332,1.496-1.332h6.327c0.821,0,1.493-0.675,1.493-1.496v-9.323
		c0-0.823,0.602-1.496,1.335-1.496s1.334,0.673,1.334,1.496v11.991c0,0.821-0.671,1.494-1.494,1.494h-8.995
		C270.761-120.699,270.088-121.299,270.088-122.033z"/>
	<g>
		<path fill="#B2B2B2" d="M277.844-155.36c-0.406-0.711-0.087-1.293,0.709-1.293c0.797,0,1.83,0.551,2.299,1.222l4.559,6.537
			c0.467,0.671,0.469,1.771,0,2.443l-4.559,6.553c-0.469,0.673-1.502,1.223-2.299,1.223c-0.796,0-1.115-0.582-0.711-1.295
			l3.646-6.408c0.405-0.712,0.404-1.877-0.002-2.587L277.844-155.36z"/>
		<path fill="#B2B2B2" d="M270.264-155.36c-0.404-0.711-0.085-1.293,0.711-1.293s1.831,0.551,2.299,1.222l4.559,6.537
			c0.469,0.671,0.469,1.771,0,2.443l-4.561,6.553c-0.467,0.673-1.501,1.223-2.297,1.223s-1.115-0.582-0.711-1.295l3.647-6.408
			c0.405-0.712,0.404-1.876-0.001-2.587L270.264-155.36z"/>
	</g>
	<g>
		<path fill="#878787" d="M276.24-161.396c0-0.822,0.021-2.167,0.047-2.988c0,0,0.009-0.257,0.12-0.947
			c0.112-0.692,0.405-1.384,0.879-2.075c0.475-0.691,1.206-1.261,2.194-1.708l0.072,0.112c0.449,0.688,0.312,1.696-0.305,2.239
			c0,0-1.039,0.916-1.052,2.985h0.362c0.822,0,1.494,0.672,1.494,1.493v1.142c0,0.822-0.672,1.495-1.494,1.495h-0.824
			c-0.822,0-1.494-0.673-1.494-1.495V-161.396z"/>
		<path fill="#878787" d="M270.088-161.396c0-0.822,0.021-2.167,0.049-2.988c0,0,0.008-0.257,0.119-0.947
			c0.112-0.692,0.402-1.384,0.869-2.075c0.469-0.691,1.204-1.261,2.203-1.708l0.074,0.112c0.449,0.688,0.311,1.695-0.307,2.237
			c0,0-1.045,0.917-1.07,2.986h0.383c0.821,0,1.494,0.672,1.494,1.493v1.142c0,0.822-0.673,1.495-1.494,1.495h-0.824
			c-0.823,0-1.496-0.673-1.496-1.495V-161.396z"/>
	</g>
	<path fill="#878787" d="M260.99-153.971c0.3,0.165,0.605,0.314,0.922,0.449c0.321,0.137,0.652,0.206,0.989,0.206
		c0.802,0,1.46-0.287,1.975-0.859c0.389-0.433,0.653-1.014,0.806-1.74c0.084-0.399-0.09-0.76-0.61-0.76
		c-0.632,0-0.79,0.259-0.831,0.374c-0.24,0.653-0.631,0.981-1.174,0.981c-0.268,0-0.546-0.069-0.837-0.206
		c-0.291-0.138-0.59-0.291-0.896-0.46c-0.298-0.163-0.604-0.313-0.921-0.448c-0.322-0.137-0.652-0.206-0.99-0.206
		c-0.801,0-1.459,0.286-1.975,0.86c-0.388,0.432-0.653,1.012-0.806,1.739c-0.083,0.4,0.091,0.759,0.61,0.759
		c0.631,0,0.789-0.259,0.832-0.373c0.24-0.655,0.631-0.982,1.173-0.982c0.267,0,0.547,0.07,0.838,0.206
		C260.385-154.292,260.684-154.139,260.99-153.971L260.99-153.971z"/>
	<path fill="#878787" d="M258.043-150.004L258.043-150.004c0.393-0.62,0.95-1.101,1.674-1.437c0.723-0.339,1.525-0.508,2.404-0.508
		c3.129,0,4.691,1.591,4.691,4.775v7.408c0,0.599-0.488,1.09-1.084,1.09h-0.6c-0.597,0-1.085-0.491-1.085-1.09l-0.013-6.925
		c0-1.006-0.202-1.757-0.607-2.252c-0.404-0.495-1.047-0.742-1.928-0.742c-1.17,0-2.026,0.345-2.568,1.036
		c-0.543,0.692-0.813,1.851-0.813,3.477l-0.002,5.406c0,0.599-0.487,1.09-1.085,1.09h-0.599c-0.597,0-1.085-0.491-1.085-1.09
		v-10.857c0-0.599,0.488-1.09,1.086-1.09h0.469C257.495-151.713,257.834-151.189,258.043-150.004z"/>
</g>
<g>
</g>
<g>
</g>
<g>
</g>
<g>
</g>
<g>
</g>
<g>
</g>
</svg>
