<?xml version="1.0" encoding="utf-8"?>
<!-- Generator: Adobe Illustrator 16.0.4, SVG Export Plug-In . SVG Version: 6.00 Build 0)  -->
<!DOCTYPE svg PUBLIC "-//W3C//DTD SVG 1.1//EN" "http://www.w3.org/Graphics/SVG/1.1/DTD/svg11.dtd">
<svg version="1.1" id="Слой_1" xmlns="http://www.w3.org/2000/svg" xmlns:xlink="http://www.w3.org/1999/xlink" x="0px" y="0px"
	 width="71px" height="71px" viewBox="0 0 71 71" enable-background="new 0 0 71 71" xml:space="preserve">
   <rect x="0" id="rect4177" height="71" width="71" y="0" fill="#fdeef6"/>
   <g id="g4179">
    <path id="path4181" d="m24.825,5.15c0,0.869 -0.796,1.579 -1.771,1.579l-7.495,0c-0.973,0 -1.77,0.798 -1.77,1.771l0,11.044c0,0.975 -0.711,1.771 -1.58,1.771c-0.869,0 -1.58,-0.797 -1.58,-1.771l0,-14.203c0,-0.974 0.796,-1.77 1.77,-1.77l10.655,0c0.974,0 1.771,0.71 1.771,1.579z" fill="#fbba00"/>
    <g id="g4183">
     <path id="path4185" d="m15.64,44.623c0.48,0.844 0.103,1.533 -0.841,1.533c-0.943,0 -2.167,-0.651 -2.722,-1.446l-5.399,-7.744c-0.554,-0.795 -0.555,-2.098 -0.001,-2.894l5.4,-7.762c0.555,-0.796 1.779,-1.447 2.722,-1.447c0.943,0 1.322,0.69 0.842,1.532l-4.318,7.592c-0.479,0.844 -0.479,2.223 0.001,3.064l4.316,7.572z" fill="#ef7d00"/>
     <path id="path4187" d="m24.615,44.623c0.481,0.844 0.103,1.533 -0.841,1.533c-0.942,0 -2.167,-0.651 -2.722,-1.446l-5.399,-7.744c-0.555,-0.795 -0.555,-2.098 -0.001,-2.894l5.401,-7.762c0.554,-0.796 1.779,-1.447 2.721,-1.447c0.944,0 1.322,0.69 0.842,1.532l-4.319,7.592c-0.479,0.844 -0.479,2.222 0.001,3.064l4.317,7.572z" fill="#ef7d00"/>
    </g>
    <g id="g4189">
     <path id="path4191" d="m17.538,51.773c0,0.974 -0.024,2.567 -0.056,3.54c0,0 -0.01,0.303 -0.142,1.121c-0.133,0.818 -0.48,1.64 -1.042,2.459c-0.562,0.817 -1.428,1.492 -2.598,2.023l-0.086,-0.133c-0.531,-0.816 -0.369,-2.01 0.361,-2.652c0,0 1.231,-1.085 1.247,-3.535l-0.43,0c-0.974,0 -1.77,-0.796 -1.77,-1.769l0,-1.353c0,-0.973 0.796,-1.77 1.77,-1.77l0.977,0c0.973,0 1.77,0.797 1.77,1.77l0,0.299l-0.001,0z" fill="#e4032e"/>
     <path id="path4193" d="m24.825,51.773c0,0.974 -0.025,2.567 -0.057,3.54c0,0 -0.01,0.303 -0.141,1.121c-0.133,0.818 -0.477,1.64 -1.03,2.459c-0.554,0.817 -1.425,1.492 -2.61,2.023l-0.087,-0.132c-0.532,-0.816 -0.369,-2.008 0.363,-2.65c0,0 1.237,-1.087 1.268,-3.537l-0.454,0c-0.974,0 -1.77,-0.796 -1.77,-1.769l0,-1.353c0,-0.973 0.796,-1.77 1.77,-1.77l0.977,0c0.974,0 1.771,0.797 1.771,1.77l0,0.298z" fill="#e4032e"/>
    </g>
    <path id="path4195" d="m46.118,65.87c0,-0.869 0.796,-1.579 1.771,-1.579l7.495,0c0.973,0 1.77,-0.798 1.77,-1.771l0,-11.043c0,-0.974 0.711,-1.771 1.58,-1.771c0.869,0 1.58,0.797 1.58,1.771l0,14.204c0,0.973 -0.796,1.77 -1.77,1.77l-10.656,0c-0.974,-0.001 -1.77,-0.712 -1.77,-1.58099l0,-0.00001z" fill="#fbba00"/>
    <g id="g4197">
     <path id="path4199" d="m55.303,26.396c-0.48,-0.843 -0.103,-1.532 0.84,-1.532c0.943,0 2.168,0.652 2.723,1.447l5.399,7.742c0.554,0.795 0.555,2.098 0.001,2.895l-5.401,7.762c-0.554,0.797 -1.778,1.447 -2.722,1.447c-0.943,0 -1.321,-0.689 -0.842,-1.533l4.318,-7.591c0.48,-0.843 0.479,-2.223 -0.001,-3.064l-4.315,-7.573z" fill="#ef7d00"/>
     <path id="path4201" d="m46.327,26.396c-0.48,-0.843 -0.102,-1.532 0.841,-1.532c0.942,0 2.168,0.652 2.722,1.447l5.398,7.742c0.555,0.795 0.556,2.098 0.001,2.895l-5.4,7.762c-0.554,0.797 -1.779,1.447 -2.721,1.447c-0.943,0 -1.322,-0.689 -0.842,-1.533l4.32,-7.591c0.479,-0.843 0.479,-2.222 -0.001,-3.064l-4.318,-7.573z" fill="#ef7d00"/>
    </g>
    <g id="g4203">
     <path id="path4205" d="m53.404,19.247c0,-0.974 0.025,-2.566 0.056,-3.539c0,0 0.01,-0.305 0.142,-1.122c0.132,-0.819 0.48,-1.64 1.041,-2.458c0.562,-0.818 1.428,-1.493 2.599,-2.023l0.086,0.133c0.531,0.814 0.369,2.009 -0.361,2.651c0,0 -1.231,1.085 -1.247,3.535l0.43,0c0.974,0 1.77,0.796 1.77,1.769l0,1.353c0,0.974 -0.796,1.771 -1.77,1.771l-0.977,0c-0.974,0 -1.77,-0.797 -1.77,-1.771l0,-0.299l0.001,0z" fill="#e4032e"/>
     <path id="path4207" d="m46.118,19.247c0,-0.974 0.025,-2.566 0.057,-3.539c0,0 0.009,-0.305 0.141,-1.122c0.133,-0.819 0.476,-1.64 1.03,-2.458c0.554,-0.818 1.425,-1.493 2.609,-2.023l0.087,0.133c0.532,0.814 0.369,2.007 -0.363,2.649c0,0 -1.237,1.087 -1.268,3.537l0.454,0c0.974,0 1.77,0.796 1.77,1.769l0,1.353c0,0.974 -0.796,1.771 -1.77,1.771l-0.977,0c-0.974,0 -1.771,-0.797 -1.771,-1.771l0,-0.299l0.001,0z" fill="#e4032e"/>
    </g>
    <path id="path4209" d="m35.342,28.042c0.355,0.195 0.718,0.372 1.091,0.531c0.382,0.162 0.773,0.244 1.172,0.244c0.95,0 1.729,-0.34 2.339,-1.018c0.459,-0.513 0.774,-1.201 0.954,-2.061c0.099,-0.473 -0.106,-0.9 -0.723,-0.9c-0.748,0 -0.936,0.307 -0.985,0.443c-0.284,0.773 -0.748,1.162 -1.39,1.162c-0.316,0 -0.647,-0.082 -0.991,-0.244c-0.344,-0.163 -0.698,-0.345 -1.061,-0.545c-0.354,-0.193 -0.718,-0.371 -1.091,-0.531c-0.381,-0.162 -0.772,-0.243 -1.172,-0.243c-0.95,0 -1.729,0.339 -2.339,1.019c-0.459,0.512 -0.774,1.199 -0.954,2.06c-0.099,0.474 0.106,0.899 0.723,0.899c0.748,0 0.936,-0.307 0.985,-0.441c0.284,-0.775 0.748,-1.163 1.39,-1.163c0.316,0 0.647,0.083 0.991,0.244c0.344,0.163 0.698,0.345 1.061,0.544l0,0z" fill="#e4032e"/>
    <path id="path4211" d="m31.851,32.74l0,0c0.465,-0.734 1.126,-1.304 1.982,-1.702c0.856,-0.401 1.806,-0.602 2.848,-0.602c3.705,0 5.557,1.885 5.557,5.655l0,8.774c0,0.709 -0.578,1.291 -1.286,1.291l-0.709,0c-0.707,0 -1.285,-0.582 -1.285,-1.291l-0.016,-8.202c0,-1.191 -0.239,-2.08 -0.719,-2.667c-0.479,-0.586 -1.241,-0.879 -2.283,-0.879c-1.387,0 -2.401,0.408 -3.043,1.228c-0.643,0.819 -0.963,2.192 -0.963,4.118l-0.001,6.402c0,0.709 -0.578,1.291 -1.286,1.291l-0.708,0c-0.707,0 -1.285,-0.582 -1.285,-1.291l0,-12.858c0,-0.709 0.578,-1.291 1.286,-1.291l0.555,0c0.707,0 1.109,0.621 1.356,2.024z" fill="#e4032e"/>
   </g>
</svg>