<svg xmlns="http://www.w3.org/2000/svg" xmlns:xlink="http://www.w3.org/1999/xlink" viewBox="0 0 256 256" style="enable-background:new 0 0 256 256" xml:space="preserve">
    <defs>
        <path id="a" d="M0 0h256v256H0z"/>
    </defs>
    <clipPath id="b">
        <use xlink:href="#a" style="overflow:visible"/>
    </clipPath>
    <path d="M240.9 256H15.1C6.8 256 0 249.2 0 240.9V15.1C0 6.8 6.8 0 15.1 0h225.8c8.3 0 15.1 6.8 15.1 15.1v225.8c0 8.3-6.8 15.1-15.1 15.1" style="clip-path:url(#b);fill:#b4383d"/>
    <path d="M4.4 4.4C7.1 1.7 10.9 0 15.1 0h225.8c8.3 0 15.1 6.8 15.1 15.1v225.8c0 4.2-1.7 7.9-4.4 10.7" style="clip-path:url(#b);fill:#c36065"/>
    <path d="M143.2 214.5H39.3c-5 0-9-4-9-9s4-9 9-9h103.9c5 0 9 4 9 9s-4.1 9-9 9m4.4-101.3H39.9c-5 0-9-4-9-9s4-9 9-9h107.7c5 0 9 4 9 9s-4.1 9-9 9m67.9-18h-37.1c-5 0-9 4-9 9s4 9 9 9h37c5 0 9-4 9-9s-4-9-8.9-9zm0-49.7H96.6c-5.2 0-9.4 4-9.4 9s4.2 9 9.4 9h118.8c5 0 9-4 9-9s-4-9-8.9-9zm-.1 101H108c-5 0-9 4-9 9v.7c0 3.8-2.6 6.9-5.8 6.9-3.1 0-5.6-2.9-5.7-6.6v-1.4c0-5-4-9-9-9H40c-5 0-9 4-9 9s4 9 9 9h38.4c.6 0 1.2-.1 1.8-.2 2.5 4.9 7.4 8.2 13 8.2 5.4 0 10.2-3.2 12.8-7.9.7.2 1.4.2 2.1.2h107.4c5 0 9-4 9-9s-4.1-8.9-9.1-8.9M41.5 45.3c-.6 0-1.2.1-1.7.2 1.7-3.1 4-5.4 7.3-6.1 1.4-.3 2.4-1.5 2.4-2.9v-.1c0-1.9-1.7-3.3-3.6-2.9-8.1 1.7-13.6 9-13.6 17.8v3.1c0 5.2 4.3 9.3 9.4 9.2 4.8-.1 8.8-4.1 8.9-8.9.2-5.1-4-9.4-9.1-9.4m24.1 0c-.6 0-1.2.1-1.7.2 1.7-3.1 4-5.4 7.3-6.1 1.4-.3 2.4-1.5 2.4-2.9v-.1c0-1.9-1.7-3.3-3.6-2.9-8.1 1.7-13.6 9-13.6 17.8v3.1c0 5.2 4.3 9.3 9.4 9.2 4.8-.1 8.8-4.1 8.9-8.9.2-5.1-4-9.4-9.1-9.4" style="clip-path:url(#b);fill:#f9f9f9"/>
</svg>
